<?xml version="1.0" standalone="no"?>
<!DOCTYPE svg PUBLIC "-//W3C//DTD SVG 20010904//EN"
 "http://www.w3.org/TR/2001/REC-SVG-20010904/DTD/svg10.dtd">
<svg version="1.0" xmlns="http://www.w3.org/2000/svg"
 width="840.000000pt" height="900.000000pt" viewBox="0 0 840.000000 900.000000"
 preserveAspectRatio="xMidYMid meet">

<g transform="translate(0.000000,900.000000) scale(0.100000,-0.100000)"
fill="#000000" stroke="none">
<path d="M4133 8108 c-19 -21 -118 -164 -139 -200 -7 -12 -92 -32 -334 -77
-447 -85 -870 -190 -973 -242 l-39 -20 7 -97 c21 -313 68 -555 127 -651 42
-68 81 -68 363 -4 209 47 215 48 215 32 0 -7 -67 -135 -149 -283 -709 -1287
-1128 -2138 -1451 -2946 -144 -359 -221 -585 -281 -820 -30 -116 -32 -140 -36
-336 -4 -173 -2 -226 12 -295 34 -164 122 -371 223 -523 94 -142 290 -318 378
-340 71 -18 81 62 38 309 -31 184 -42 417 -24 536 43 296 240 825 625 1682 32
70 54 107 64 107 11 0 28 -31 51 -87 48 -118 81 -163 121 -163 17 0 97 18 177
40 377 104 635 137 953 120 659 -34 1191 -203 1447 -460 147 -147 172 -338 72
-538 -265 -524 -1278 -1176 -2100 -1349 -107 -23 -150 -27 -300 -27 -170 -1
-177 0 -240 27 -36 15 -104 50 -152 77 -116 66 -135 70 -148 34 -13 -34 2
-178 31 -303 51 -218 197 -409 388 -505 127 -65 336 -91 501 -62 338 59 640
154 980 307 96 43 181 79 188 79 17 0 241 113 321 162 36 23 93 57 126 76 33
20 83 54 111 76 28 23 92 74 143 115 98 78 188 183 261 305 61 101 160 277
160 285 0 4 12 31 26 60 100 208 136 454 115 774 -20 302 -64 520 -141 705
-126 302 -407 564 -730 682 -41 16 -76 34 -78 41 -1 9 26 24 75 43 116 43 335
145 464 217 422 232 706 512 887 874 129 259 180 514 169 850 -16 479 -153
821 -447 1116 -246 247 -519 376 -955 451 -112 19 -165 22 -380 22 -137 -1
-288 -6 -334 -11 l-84 -11 -79 64 c-128 104 -185 125 -225 82z m1037 -292
c238 -30 485 -107 665 -206 88 -49 219 -154 264 -211 l34 -44 -34 31 c-146
133 -363 254 -569 319 -171 54 -272 73 -555 105 -55 7 -102 14 -104 16 -10 10
195 3 299 -10z m-35 -130 c56 -13 43 -14 -212 -12 -149 0 -270 2 -269 3 1 1
27 9 57 18 67 19 331 13 424 -9z m-85 -546 c497 -35 840 -122 1087 -276 154
-96 223 -216 210 -368 -16 -182 -119 -359 -336 -577 -465 -467 -1331 -856
-2231 -1004 -174 -28 -483 -65 -548 -65 l-42 0 211 422 c116 232 292 577 391
767 260 498 539 1025 546 1032 10 10 288 59 385 68 119 12 166 12 327 1z
m-3079 -3377 c-17 -48 -62 -178 -101 -288 -165 -464 -213 -627 -247 -839 -22
-139 -24 -180 -19 -299 6 -135 40 -340 72 -429 28 -81 7 -46 -31 50 -63 161
-84 241 -97 369 -28 284 42 618 219 1033 77 182 226 499 231 495 2 -2 -10 -43
-27 -92z m3209 -1574 c-52 -50 -120 -109 -150 -132 -30 -23 -86 -67 -125 -98
-67 -53 -219 -159 -229 -159 -3 0 -42 -23 -88 -51 -297 -181 -730 -347 -1003
-383 -29 -4 -34 -3 -20 4 11 5 31 9 45 9 25 1 198 52 320 96 105 37 420 174
451 196 15 11 50 29 76 40 132 58 601 381 758 523 87 79 64 49 -35 -45z
m-1255 -857 c-22 -10 -78 -26 -125 -36 -163 -34 -265 -58 -285 -66 -73 -31
-374 -16 -495 24 -88 29 -87 30 50 11 58 -8 151 -15 207 -15 177 0 537 50 633
89 44 17 57 11 15 -7z"/>
</g>
</svg>
